<svg xmlns="http://www.w3.org/2000/svg" width="1290" height="2796" viewBox="0 0 1290 2796">
  <defs>
    <linearGradient id="bg" x1="0" y1="0" x2="1" y2="1"><stop stop-color="#3C1A3C"/><stop offset="1" stop-color="#5D2D5D"/></linearGradient>
    <radialGradient id="glow"><stop stop-color="#CC8C94" stop-opacity=".45"/><stop offset="1" stop-color="#CC8C94" stop-opacity="0"/></radialGradient>
    <filter id="shadow"><feDropShadow dx="0" dy="16" stdDeviation="18" flood-color="#120612" flood-opacity=".35"/></filter>
  </defs>
  <rect x="0" y="0" width="1290" height="2796" rx="0" fill="url(#bg)" stroke="none" stroke-width="0"/>
  <circle cx="1230" cy="120" r="240" fill="url(#glow)"/>
  <circle cx="20" cy="2656" r="170" fill="#649064" opacity=".15"/>
  <line x1="70" y1="92" x2="180" y2="92" stroke="#C8A96E" stroke-width="4"/>
  <text x="70" y="155" fill="#C8A96E" font-family="Arial" font-size="26px" font-weight="700" text-anchor="start">THE NUPTIAL PLAN</text>
  <text x="70" y="250" fill="#C8A96E" font-family="Arial" font-size="24px" font-weight="700" text-anchor="start">VOTRE ÉQUIPE, ENFIN RÉUNIE</text>
  <text x="70" y="340" fill="#F8F3EE" font-family="Georgia" font-size="66px" font-weight="700" text-anchor="start"><tspan x="70" dy="0">Les bons</tspan><tspan x="70" dy="73.92">prestataires,</tspan><tspan x="70" dy="73.92">au bon moment</tspan></text>
  <rect x="195" y="760" width="910" height="1440" rx="54" fill="#160A16" stroke="#9A6A9A" stroke-width="3"/>
    <rect x="213" y="778" width="874" height="1404" rx="40" fill="#FDF9FD" stroke="none" stroke-width="0"/><text x="250" y="880" fill="#3C1A3C" font-family="Georgia" font-size="32px" font-weight="700" text-anchor="start">Prestataires</text><text x="250" y="935" fill="#716471" font-family="Arial" font-size="17px" font-weight="400" text-anchor="start">Tous vos contacts et contrats</text><rect x="250" y="1020" width="800" height="140" rx="22" fill="#F2E6F2" stroke="none" stroke-width="0"/><rect x="280" y="1055" width="70" height="70" rx="18" fill="#649064" stroke="none" stroke-width="0"/><text x="380" y="1100" fill="#3C1A3C" font-family="Arial" font-size="20px" font-weight="700" text-anchor="start">Domaine des Lumières</text><text x="380" y="1132" fill="#716471" font-family="Arial" font-size="15px" font-weight="400" text-anchor="start">Lieu · Confirmé</text><rect x="250" y="1200" width="800" height="140" rx="22" fill="#FAF0F1" stroke="none" stroke-width="0"/><rect x="280" y="1235" width="70" height="70" rx="18" fill="#CC8C94" stroke="none" stroke-width="0"/><text x="380" y="1280" fill="#3C1A3C" font-family="Arial" font-size="20px" font-weight="700" text-anchor="start">Maison Camille</text><text x="380" y="1312" fill="#716471" font-family="Arial" font-size="15px" font-weight="400" text-anchor="start">Traiteur · Devis reçu</text><rect x="250" y="1380" width="800" height="140" rx="22" fill="#F2E6F2" stroke="none" stroke-width="0"/><rect x="280" y="1415" width="70" height="70" rx="18" fill="#C8A96E" stroke="none" stroke-width="0"/><text x="380" y="1460" fill="#3C1A3C" font-family="Arial" font-size="20px" font-weight="700" text-anchor="start">Atelier Floral</text><text x="380" y="1492" fill="#716471" font-family="Arial" font-size="15px" font-weight="400" text-anchor="start">Décoration · À contacter</text><rect x="250" y="1560" width="800" height="140" rx="22" fill="#FAF0F1" stroke="none" stroke-width="0"/><rect x="280" y="1595" width="70" height="70" rx="18" fill="#5D2D5D" stroke="none" stroke-width="0"/><text x="380" y="1640" fill="#3C1A3C" font-family="Arial" font-size="20px" font-weight="700" text-anchor="start">Studio Louise</text><text x="380" y="1672" fill="#716471" font-family="Arial" font-size="15px" font-weight="400" text-anchor="start">Photo · Confirmé</text>
  <text x="645" y="2716" fill="#C8A96E" font-family="Arial" font-size="22px" font-weight="700" text-anchor="middle">04  /  06</text>
  </svg>